AG-Transport-Heavy.ufo
<glyph name="percent" format="2">
  <advance width="800"/>
  <unicode hex="0025"/>
  <outline>
    <contour>
      <point x="170" y="0" type="line"/>
      <point x="713" y="734" type="line"/>
      <point x="619" y="734" type="line"/>
      <point x="76" y="0" type="line"/>
    </contour>
    <contour>
      <point x="207" y="440" type="curve" smooth="yes"/>
      <point x="148" y="440"/>
      <point x="140" y="500"/>
      <point x="140" y="546" type="curve" smooth="yes"/>
      <point x="140" y="593"/>
      <point x="148" y="654"/>
      <point x="207" y="654" type="curve" smooth="yes"/>
      <point x="266" y="654"/>
      <point x="275" y="592"/>
      <point x="275" y="546" type="curve" smooth="yes"/>
      <point x="275" y="500"/>
      <point x="266" y="440"/>
    </contour>
    <contour>
      <point x="208" y="380" type="curve" smooth="yes"/>
      <point x="300" y="380"/>
      <point x="342" y="451"/>
      <point x="342" y="547" type="curve" smooth="yes"/>
      <point x="342" y="643"/>
      <point x="300" y="713"/>
      <point x="209" y="713" type="curve" smooth="yes"/>
      <point x="118" y="713"/>
      <point x="73" y="643"/>
      <point x="73" y="546" type="curve" smooth="yes"/>
      <point x="73" y="451"/>
      <point x="116" y="380"/>
    </contour>
    <contour>
      <point x="581" y="80" type="curve" smooth="yes"/>
      <point x="522" y="80"/>
      <point x="514" y="140"/>
      <point x="514" y="186" type="curve" smooth="yes"/>
      <point x="514" y="233"/>
      <point x="522" y="294"/>
      <point x="581" y="294" type="curve" smooth="yes"/>
      <point x="640" y="294"/>
      <point x="649" y="232"/>
      <point x="649" y="186" type="curve" smooth="yes"/>
      <point x="649" y="140"/>
      <point x="640" y="80"/>
    </contour>
    <contour>
      <point x="582" y="20" type="curve" smooth="yes"/>
      <point x="674" y="20"/>
      <point x="716" y="91"/>
      <point x="716" y="187" type="curve" smooth="yes"/>
      <point x="716" y="283"/>
      <point x="674" y="353"/>
      <point x="583" y="353" type="curve" smooth="yes"/>
      <point x="492" y="353"/>
      <point x="447" y="283"/>
      <point x="447" y="186" type="curve" smooth="yes"/>
      <point x="447" y="91"/>
      <point x="490" y="20"/>
    </contour>
  </outline>
</glyph>
<glyph name="parenleft" format="2">
  <advance width="575"/>
  <unicode hex="0028"/>
  <outline>
    <contour>
      <point x="49" y="348" type="curve" smooth="yes"/>
      <point x="49" y="114"/>
      <point x="172" y="-76"/>
      <point x="358" y="-126" type="curve"/>
      <point x="415" y="-29" type="line"/>
      <point x="284" y="41"/>
      <point x="196" y="192"/>
      <point x="196" y="348" type="curve" smooth="yes"/>
      <point x="196" y="501"/>
      <point x="284" y="653"/>
      <point x="415" y="727" type="curve"/>
      <point x="358" y="824" type="line"/>
      <point x="172" y="773"/>
      <point x="49" y="582"/>
    </contour>
  </outline>
</glyph>
<glyph name="comma" format="2">
  <advance width="340"/>
  <unicode hex="002C"/>
  <outline>
    <contour>
      <point x="128" y="27" type="curve"/>
      <point x="134" y="23"/>
      <point x="139" y="20"/>
      <point x="139" y="18" type="curve"/>
      <point x="118" y="-2"/>
      <point x="88" y="-21"/>
      <point x="64" y="-30" type="curve"/>
      <point x="76" y="-60" type="line"/>
      <point x="149" y="-54"/>
      <point x="199" y="3"/>
      <point x="200" y="73" type="curve" smooth="yes"/>
      <point x="201" y="128"/>
      <point x="171" y="155"/>
      <point x="127" y="155" type="curve" smooth="yes"/>
      <point x="84" y="155"/>
      <point x="50" y="128"/>
      <point x="50" y="89" type="curve" smooth="yes"/>
      <point x="50" y="53"/>
      <point x="77" y="26"/>
      <point x="114" y="26" type="curve" smooth="yes"/>
      <point x="120" y="26"/>
      <point x="126" y="26"/>
    </contour>
  </outline>
</glyph>
<glyph name="slash" format="2">
  <advance width="405"/>
  <unicode hex="002F"/>
  <outline>
    <contour>
      <point x="14" y="-134" type="line"/>
      <point x="120" y="-164" type="line"/>
      <point x="364" y="688" type="line"/>
      <point x="258" y="719" type="line"/>
    </contour>
  </outline>
</glyph>
<glyph name="zero" format="2">
  <advance width="725"/>
  <unicode hex="0030"/>
  <outline>
    <contour>
      <point x="66" y="351" type="curve" smooth="yes"/>
      <point x="66" y="121"/>
      <point x="172" y="-17"/>
      <point x="363" y="-17" type="curve" smooth="yes"/>
      <point x="552" y="-17"/>
      <point x="658" y="120"/>
      <point x="658" y="350" type="curve" smooth="yes"/>
      <point x="658" y="580"/>
      <point x="552" y="717"/>
      <point x="362" y="717" type="curve" smooth="yes"/>
      <point x="172" y="717"/>
      <point x="66" y="581"/>
    </contour>
    <contour>
      <point x="213" y="355" type="curve" smooth="yes"/>
      <point x="213" y="514"/>
      <point x="267" y="587"/>
      <point x="362" y="587" type="curve" smooth="yes"/>
      <point x="457" y="587"/>
      <point x="511" y="514"/>
      <point x="511" y="355" type="curve" smooth="yes"/>
      <point x="511" y="196"/>
      <point x="457" y="113"/>
      <point x="362" y="113" type="curve" smooth="yes"/>
      <point x="267" y="113"/>
      <point x="213" y="196"/>
    </contour>
  </outline>
</glyph>
<glyph name="one" format="2">
  <advance width="420"/>
  <unicode hex="0031"/>
  <outline>
    <contour>
      <point x="163" y="0" type="line"/>
      <point x="306" y="0" type="line"/>
      <point x="306" y="700" type="line"/>
      <point x="179" y="700" type="line"/>
      <point x="192" y="641"/>
      <point x="139" y="598"/>
      <point x="46" y="593" type="curve"/>
      <point x="46" y="474" type="line"/>
      <point x="163" y="474" type="line"/>
    </contour>
  </outline>
</glyph>
<glyph name="two" format="2">
  <advance width="625"/>
  <unicode hex="0032"/>
  <outline>
    <contour>
      <point x="78" y="130" type="curve"/>
      <point x="78" y="0" type="line"/>
      <point x="571" y="0" type="line"/>
      <point x="571" y="130" type="line"/>
      <point x="324" y="130" type="line"/>
      <point x="481" y="173"/>
      <point x="586" y="310"/>
      <point x="586" y="469" type="curve" smooth="yes"/>
      <point x="586" y="624"/>
      <point x="486" y="715"/>
      <point x="320" y="715" type="curve" smooth="yes"/>
      <point x="140" y="715"/>
      <point x="35" y="602"/>
      <point x="58" y="433" type="curve"/>
      <point x="201" y="433" type="line"/>
      <point x="194" y="524"/>
      <point x="243" y="585"/>
      <point x="326" y="585" type="curve" smooth="yes"/>
      <point x="400" y="585"/>
      <point x="443" y="536"/>
      <point x="443" y="471" type="curve" smooth="yes"/>
      <point x="443" y="397"/>
      <point x="388" y="347"/>
      <point x="346" y="313" type="curve" smooth="yes"/>
      <point x="283" y="262"/>
      <point x="177" y="190"/>
    </contour>
  </outline>
</glyph>
<glyph name="four" format="2">
  <advance width="690"/>
  <unicode hex="0034"/>
  <outline>
    <contour>
      <point x="26" y="120" type="line"/>
      <point x="406" y="120" type="line"/>
      <point x="406" y="0" type="line"/>
      <point x="549" y="0" type="line"/>
      <point x="549" y="120" type="line"/>
      <point x="640" y="120" type="line"/>
      <point x="640" y="250" type="line"/>
      <point x="549" y="250" type="line"/>
      <point x="549" y="699" type="line"/>
      <point x="367" y="699" type="line"/>
      <point x="26" y="250" type="line"/>
    </contour>
    <contour>
      <point x="406" y="250" type="line"/>
      <point x="185" y="250" type="line"/>
      <point x="406" y="542" type="line"/>
    </contour>
  </outline>
</glyph>
<glyph name="five" format="2">
  <advance width="650"/>
  <unicode hex="0035"/>
  <outline>
    <contour>
      <point x="332" y="114" type="curve" smooth="yes"/>
      <point x="269" y="114"/>
      <point x="222" y="155"/>
      <point x="215" y="217" type="curve"/>
      <point x="76" y="177" type="line"/>
      <point x="102" y="61"/>
      <point x="209" y="-17"/>
      <point x="347" y="-17" type="curve" smooth="yes"/>
      <point x="513" y="-17"/>
      <point x="594" y="95"/>
      <point x="594" y="248" type="curve" smooth="yes"/>
      <point x="594" y="413"/>
      <point x="500" y="508"/>
      <point x="364" y="508" type="curve" smooth="yes"/>
      <point x="308" y="508"/>
      <point x="257" y="491"/>
      <point x="237" y="466" type="curve"/>
      <point x="252" y="570" type="line"/>
      <point x="563" y="570" type="line"/>
      <point x="563" y="700" type="line"/>
      <point x="129" y="700" type="line"/>
      <point x="76" y="337" type="line"/>
      <point x="222" y="314" type="line"/>
      <point x="245" y="351"/>
      <point x="288" y="375"/>
      <point x="332" y="375" type="curve" smooth="yes"/>
      <point x="401" y="375"/>
      <point x="450" y="315"/>
      <point x="450" y="244" type="curve" smooth="yes"/>
      <point x="450" y="173"/>
      <point x="402" y="114"/>
    </contour>
  </outline>
</glyph>
<glyph name="six" format="2">
  <advance width="645"/>
  <unicode hex="0036"/>
  <outline>
    <contour>
      <point x="200" y="432" type="curve"/>
      <point x="195" y="525"/>
      <point x="248" y="586"/>
      <point x="323" y="586" type="curve" smooth="yes"/>
      <point x="374" y="586"/>
      <point x="419" y="558"/>
      <point x="435" y="515" type="curve"/>
      <point x="567" y="564" type="line"/>
      <point x="552" y="654"/>
      <point x="457" y="714"/>
      <point x="328" y="714" type="curve" smooth="yes"/>
      <point x="146" y="714"/>
      <point x="56" y="596"/>
      <point x="56" y="363" type="curve" smooth="yes"/>
      <point x="56" y="119"/>
      <point x="155" y="-10"/>
      <point x="340" y="-10" type="curve" smooth="yes"/>
      <point x="496" y="-10"/>
      <point x="582" y="82"/>
      <point x="582" y="238" type="curve" smooth="yes"/>
      <point x="582" y="401"/>
      <point x="489" y="485"/>
      <point x="361" y="485" type="curve" smooth="yes"/>
      <point x="297" y="485"/>
      <point x="233" y="464"/>
    </contour>
    <contour>
      <point x="327" y="360" type="curve" smooth="yes"/>
      <point x="395" y="360"/>
      <point x="439" y="305"/>
      <point x="439" y="241" type="curve" smooth="yes"/>
      <point x="439" y="178"/>
      <point x="397" y="120"/>
      <point x="329" y="120" type="curve" smooth="yes"/>
      <point x="261" y="120"/>
      <point x="211" y="179"/>
      <point x="211" y="243" type="curve" smooth="yes"/>
      <point x="211" y="307"/>
      <point x="260" y="360"/>
    </contour>
  </outline>
</glyph>
<glyph name="seven" format="2">
  <advance width="535"/>
  <unicode hex="0037"/>
  <outline>
    <contour>
      <point x="18" y="571" type="line"/>
      <point x="356" y="571" type="line"/>
      <point x="119" y="0" type="line"/>
      <point x="275" y="0" type="line"/>
      <point x="511" y="571" type="line"/>
      <point x="511" y="700" type="line"/>
      <point x="18" y="700" type="line"/>
    </contour>
  </outline>
</glyph>
<glyph name="eight" format="2">
  <advance width="690"/>
  <unicode hex="0038"/>
  <outline>
    <contour>
      <point x="622" y="202" type="curve" smooth="yes"/>
      <point x="622" y="273"/>
      <point x="582" y="337"/>
      <point x="522" y="362" type="curve"/>
      <point x="575" y="382"/>
      <point x="611" y="439"/>
      <point x="611" y="507" type="curve" smooth="yes"/>
      <point x="611" y="637"/>
      <point x="481" y="713"/>
      <point x="359" y="713" type="curve" smooth="yes"/>
      <point x="237" y="713"/>
      <point x="107" y="637"/>
      <point x="107" y="505" type="curve" smooth="yes"/>
      <point x="107" y="439"/>
      <point x="142" y="382"/>
      <point x="195" y="362" type="curve"/>
      <point x="135" y="337"/>
      <point x="96" y="273"/>
      <point x="96" y="194" type="curve" smooth="yes"/>
      <point x="96" y="52"/>
      <point x="225" y="-15"/>
      <point x="359" y="-15" type="curve" smooth="yes"/>
      <point x="493" y="-15"/>
      <point x="622" y="52"/>
    </contour>
    <contour>
      <point x="464" y="501" type="curve" smooth="yes"/>
      <point x="464" y="443"/>
      <point x="410" y="416"/>
      <point x="359" y="416" type="curve" smooth="yes"/>
      <point x="308" y="416"/>
      <point x="254" y="443"/>
      <point x="254" y="501" type="curve" smooth="yes"/>
      <point x="254" y="559"/>
      <point x="308" y="583"/>
      <point x="359" y="583" type="curve" smooth="yes"/>
      <point x="411" y="583"/>
      <point x="464" y="559"/>
    </contour>
    <contour>
      <point x="359" y="114" type="curve" smooth="yes"/>
      <point x="300" y="114"/>
      <point x="241" y="139"/>
      <point x="241" y="205" type="curve" smooth="yes"/>
      <point x="241" y="271"/>
      <point x="300" y="297"/>
      <point x="359" y="297" type="curve" smooth="yes"/>
      <point x="418" y="297"/>
      <point x="477" y="271"/>
      <point x="477" y="205" type="curve" smooth="yes"/>
      <point x="477" y="139"/>
      <point x="418" y="114"/>
    </contour>
  </outline>
</glyph>
<glyph name="A" format="2">
  <advance width="710"/>
  <unicode hex="0041"/>
  <outline>
    <contour>
      <point x="262" y="700" type="line"/>
      <point x="29" y="0" type="line"/>
      <point x="186" y="0" type="line"/>
      <point x="223" y="124" type="line"/>
      <point x="487" y="124" type="line"/>
      <point x="524" y="0" type="line"/>
      <point x="681" y="0" type="line"/>
      <point x="448" y="700" type="line"/>
    </contour>
    <contour>
      <point x="355" y="553" type="line"/>
      <point x="449" y="247" type="line"/>
      <point x="261" y="247" type="line"/>
    </contour>
  </outline>
</glyph>
<glyph name="B" format="2">
  <advance width="730"/>
  <unicode hex="0042"/>
  <outline>
    <contour>
      <point x="562" y="381" type="curve"/>
      <point x="607" y="407"/>
      <point x="637" y="461"/>
      <point x="637" y="515" type="curve" smooth="yes"/>
      <point x="637" y="613"/>
      <point x="539" y="699"/>
      <point x="441" y="699" type="curve" smooth="yes"/>
      <point x="112" y="699" type="line"/>
      <point x="112" y="0" type="line"/>
      <point x="455" y="0" type="line" smooth="yes"/>
      <point x="569" y="0"/>
      <point x="666" y="92"/>
      <point x="666" y="207" type="curve" smooth="yes"/>
      <point x="666" y="282"/>
      <point x="624" y="349"/>
    </contour>
    <contour>
      <point x="415" y="418" type="curve" smooth="yes"/>
      <point x="255" y="418" type="line"/>
      <point x="255" y="566" type="line"/>
      <point x="415" y="566" type="line" smooth="yes"/>
      <point x="456" y="566"/>
      <point x="489" y="534"/>
      <point x="489" y="493" type="curve" smooth="yes"/>
      <point x="489" y="452"/>
      <point x="455" y="418"/>
    </contour>
    <contour>
      <point x="422" y="308" type="line" smooth="yes"/>
      <point x="470" y="308"/>
      <point x="509" y="268"/>
      <point x="509" y="221" type="curve" smooth="yes"/>
      <point x="509" y="173"/>
      <point x="469" y="133"/>
      <point x="422" y="133" type="curve" smooth="yes"/>
      <point x="255" y="133" type="line"/>
      <point x="255" y="308" type="line"/>
    </contour>
  </outline>
</glyph>
<glyph name="C" format="2">
  <advance width="755"/>
  <unicode hex="0043"/>
  <outline>
    <contour>
      <point x="561" y="260" type="line"/>
      <point x="548" y="176"/>
      <point x="483" y="120"/>
      <point x="392" y="120" type="curve" smooth="yes"/>
      <point x="262" y="120"/>
      <point x="216" y="235"/>
      <point x="216" y="351" type="curve" smooth="yes"/>
      <point x="216" y="467"/>
      <point x="262" y="581"/>
      <point x="391" y="581" type="curve" smooth="yes"/>
      <point x="483" y="581"/>
      <point x="551" y="524"/>
      <point x="561" y="440" type="curve"/>
      <point x="704" y="497" type="line"/>
      <point x="682" y="629"/>
      <point x="559" y="716"/>
      <point x="401" y="716" type="curve" smooth="yes"/>
      <point x="195" y="716"/>
      <point x="62" y="566"/>
      <point x="62" y="350" type="curve" smooth="yes"/>
      <point x="62" y="134"/>
      <point x="194" y="-16"/>
      <point x="400" y="-16" type="curve" smooth="yes"/>
      <point x="558" y="-16"/>
      <point x="680" y="71"/>
      <point x="704" y="203" type="curve"/>
    </contour>
  </outline>
</glyph>
<glyph name="D" format="2">
  <advance width="750"/>
  <unicode hex="0044"/>
  <outline>
    <contour>
      <point x="380" y="140" type="curve" smooth="yes"/>
      <point x="257" y="140" type="line"/>
      <point x="257" y="560" type="line"/>
      <point x="380" y="560" type="line" smooth="yes"/>
      <point x="498" y="560"/>
      <point x="551" y="460"/>
      <point x="551" y="355" type="curve" smooth="yes"/>
      <point x="551" y="250"/>
      <point x="498" y="140"/>
    </contour>
    <contour>
      <point x="378" y="0" type="line" smooth="yes"/>
      <point x="565" y="0"/>
      <point x="694" y="143"/>
      <point x="694" y="350" type="curve" smooth="yes"/>
      <point x="694" y="557"/>
      <point x="565" y="700"/>
      <point x="378" y="700" type="curve" smooth="yes"/>
      <point x="114" y="700" type="line"/>
      <point x="114" y="0" type="line"/>
    </contour>
  </outline>
</glyph>
<glyph name="E" format="2">
  <advance width="680"/>
  <unicode hex="0045"/>
  <outline>
    <contour>
      <point x="597" y="136" type="line"/>
      <point x="254" y="136" type="line"/>
      <point x="254" y="290" type="line"/>
      <point x="541" y="290" type="line"/>
      <point x="541" y="420" type="line"/>
      <point x="254" y="420" type="line"/>
      <point x="254" y="563" type="line"/>
      <point x="571" y="563" type="line"/>
      <point x="571" y="699" type="line"/>
      <point x="111" y="699" type="line"/>
      <point x="111" y="0" type="line"/>
      <point x="597" y="0" type="line"/>
    </contour>
  </outline>
</glyph>
<glyph name="F" format="2">
  <advance width="605"/>
  <unicode hex="0046"/>
  <outline>
    <contour>
      <point x="255" y="0" type="line"/>
      <point x="255" y="290" type="line"/>
      <point x="541" y="290" type="line"/>
      <point x="541" y="420" type="line"/>
      <point x="255" y="420" type="line"/>
      <point x="255" y="563" type="line"/>
      <point x="571" y="563" type="line"/>
      <point x="571" y="699" type="line"/>
      <point x="112" y="699" type="line"/>
      <point x="112" y="0" type="line"/>
    </contour>
  </outline>
</glyph>
<glyph name="G" format="2">
  <advance width="780"/>
  <unicode hex="0047"/>
  <outline>
    <contour>
      <point x="216" y="350" type="curve" smooth="yes"/>
      <point x="216" y="467"/>
      <point x="261" y="580"/>
      <point x="388" y="580" type="curve" smooth="yes"/>
      <point x="461" y="580"/>
      <point x="526" y="539"/>
      <point x="550" y="479" type="curve"/>
      <point x="684" y="543" type="line"/>
      <point x="636" y="648"/>
      <point x="525" y="717"/>
      <point x="390" y="717" type="curve" smooth="yes"/>
      <point x="194" y="717"/>
      <point x="62" y="569"/>
      <point x="62" y="356" type="curve" smooth="yes"/>
      <point x="62" y="140"/>
      <point x="197" y="-17"/>
      <point x="391" y="-17" type="curve" smooth="yes"/>
      <point x="446" y="-17"/>
      <point x="512" y="10"/>
      <point x="556" y="50" type="curve"/>
      <point x="556" y="0" type="line"/>
      <point x="687" y="0" type="line"/>
      <point x="687" y="403" type="line"/>
      <point x="380" y="403" type="line"/>
      <point x="380" y="280" type="line"/>
      <point x="556" y="280" type="line"/>
      <point x="550" y="184"/>
      <point x="486" y="119"/>
      <point x="390" y="119" type="curve" smooth="yes"/>
      <point x="262" y="119"/>
      <point x="216" y="233"/>
    </contour>
  </outline>
</glyph>
<glyph name="H" format="2">
  <advance width="795"/>
  <unicode hex="0048"/>
  <outline>
    <contour>
      <point x="543" y="433" type="line"/>
      <point x="260" y="433" type="line"/>
      <point x="260" y="700" type="line"/>
      <point x="117" y="700" type="line"/>
      <point x="117" y="0" type="line"/>
      <point x="260" y="0" type="line"/>
      <point x="260" y="296" type="line"/>
      <point x="543" y="296" type="line"/>
      <point x="543" y="0" type="line"/>
      <point x="686" y="0" type="line"/>
      <point x="686" y="700" type="line"/>
      <point x="543" y="700" type="line"/>
    </contour>
  </outline>
</glyph>
<glyph name="J" format="2">
  <advance width="475"/>
  <unicode hex="004A"/>
  <outline>
    <contour>
      <point x="20" y="0" type="line"/>
      <point x="49" y="-7"/>
      <point x="91" y="-13"/>
      <point x="131" y="-13" type="curve" smooth="yes"/>
      <point x="239" y="-13"/>
      <point x="366" y="23"/>
      <point x="366" y="160" type="curve" smooth="yes"/>
      <point x="366" y="700" type="line"/>
      <point x="223" y="700" type="line"/>
      <point x="223" y="184" type="line" smooth="yes"/>
      <point x="223" y="130"/>
      <point x="163" y="131"/>
      <point x="146" y="131" type="curve" smooth="yes"/>
      <point x="110" y="131"/>
      <point x="84" y="132"/>
      <point x="80" y="135" type="curve"/>
    </contour>
  </outline>
</glyph>
<glyph name="K" format="2">
  <advance width="690"/>
  <unicode hex="004B"/>
  <outline>
    <contour>
      <point x="260" y="243" type="line"/>
      <point x="320" y="310" type="line"/>
      <point x="516" y="0" type="line"/>
      <point x="686" y="0" type="line"/>
      <point x="419" y="421" type="line"/>
      <point x="672" y="700" type="line"/>
      <point x="479" y="700" type="line"/>
      <point x="260" y="457" type="line"/>
      <point x="260" y="700" type="line"/>
      <point x="117" y="700" type="line"/>
      <point x="117" y="0" type="line"/>
      <point x="260" y="0" type="line"/>
    </contour>
  </outline>
</glyph>
<glyph name="M" format="2">
  <advance width="930"/>
  <unicode hex="004D"/>
  <outline>
    <contour>
      <point x="254" y="0" type="line"/>
      <point x="254" y="507" type="line"/>
      <point x="466" y="200" type="line"/>
      <point x="678" y="507" type="line"/>
      <point x="678" y="0" type="line"/>
      <point x="821" y="0" type="line"/>
      <point x="821" y="700" type="line"/>
      <point x="637" y="700" type="line"/>
      <point x="466" y="452" type="line"/>
      <point x="295" y="700" type="line"/>
      <point x="111" y="700" type="line"/>
      <point x="111" y="0" type="line"/>
    </contour>
  </outline>
</glyph>
<glyph name="N" format="2">
  <advance width="840"/>
  <unicode hex="004E"/>
  <outline>
    <contour>
      <point x="587" y="227" type="line"/>
      <point x="274" y="700" type="line"/>
      <point x="110" y="700" type="line"/>
      <point x="110" y="0" type="line"/>
      <point x="253" y="0" type="line"/>
      <point x="253" y="474" type="line"/>
      <point x="566" y="0" type="line"/>
      <point x="730" y="0" type="line"/>
      <point x="730" y="700" type="line"/>
      <point x="587" y="700" type="line"/>
    </contour>
  </outline>
</glyph>
<glyph name="O" format="2">
  <advance width="790"/>
  <unicode hex="004F"/>
  <outline>
    <contour>
      <point x="730" y="350" type="curve" smooth="yes"/>
      <point x="730" y="560"/>
      <point x="597" y="717"/>
      <point x="399" y="717" type="curve" smooth="yes"/>
      <point x="200" y="717"/>
      <point x="62" y="560"/>
      <point x="62" y="350" type="curve" smooth="yes"/>
      <point x="62" y="140"/>
      <point x="200" y="-17"/>
      <point x="396" y="-17" type="curve" smooth="yes"/>
      <point x="592" y="-17"/>
      <point x="730" y="140"/>
    </contour>
    <contour>
      <point x="396" y="580" type="curve" smooth="yes"/>
      <point x="530" y="580"/>
      <point x="576" y="467"/>
      <point x="576" y="350" type="curve" smooth="yes"/>
      <point x="576" y="232"/>
      <point x="530" y="119"/>
      <point x="396" y="119" type="curve" smooth="yes"/>
      <point x="262" y="119"/>
      <point x="216" y="232"/>
      <point x="216" y="350" type="curve" smooth="yes"/>
      <point x="216" y="467"/>
      <point x="262" y="580"/>
    </contour>
  </outline>
</glyph>
<glyph name="P" format="2">
  <advance width="670"/>
  <unicode hex="0050"/>
  <outline>
    <contour>
      <point x="417" y="700" type="curve" smooth="yes"/>
      <point x="115" y="700" type="line"/>
      <point x="115" y="0" type="line"/>
      <point x="258" y="0" type="line"/>
      <point x="258" y="246" type="line"/>
      <point x="417" y="246" type="line" smooth="yes"/>
      <point x="539" y="246"/>
      <point x="636" y="352"/>
      <point x="636" y="472" type="curve" smooth="yes"/>
      <point x="636" y="592"/>
      <point x="539" y="700"/>
    </contour>
    <contour>
      <point x="258" y="376" type="line"/>
      <point x="258" y="570" type="line"/>
      <point x="400" y="570" type="line" smooth="yes"/>
      <point x="457" y="570"/>
      <point x="493" y="532"/>
      <point x="493" y="472" type="curve" smooth="yes"/>
      <point x="493" y="412"/>
      <point x="457" y="376"/>
      <point x="400" y="376" type="curve" smooth="yes"/>
    </contour>
  </outline>
</glyph>
<glyph name="Q" format="2">
  <advance width="805"/>
  <unicode hex="0051"/>
  <outline>
    <contour>
      <point x="742" y="350" type="curve" smooth="yes"/>
      <point x="742" y="565"/>
      <point x="613" y="717"/>
      <point x="407" y="717" type="curve" smooth="yes"/>
      <point x="194" y="717"/>
      <point x="62" y="555"/>
      <point x="62" y="345" type="curve" smooth="yes"/>
      <point x="62" y="135"/>
      <point x="193" y="-17"/>
      <point x="403" y="-17" type="curve" smooth="yes"/>
      <point x="613" y="-17"/>
      <point x="742" y="135"/>
    </contour>
    <contour>
      <point x="402" y="580" type="curve" smooth="yes"/>
      <point x="541" y="580"/>
      <point x="588" y="467"/>
      <point x="588" y="350" type="curve" smooth="yes"/>
      <point x="588" y="233"/>
      <point x="541" y="119"/>
      <point x="402" y="119" type="curve" smooth="yes"/>
      <point x="263" y="119"/>
      <point x="216" y="232"/>
      <point x="216" y="350" type="curve" smooth="yes"/>
      <point x="216" y="467"/>
      <point x="263" y="580"/>
    </contour>
    <contour>
      <point x="481" y="253" type="line"/>
      <point x="368" y="196" type="line"/>
      <point x="511" y="-90" type="line"/>
      <point x="644" y="-23" type="line"/>
    </contour>
  </outline>
</glyph>
<glyph name="R" format="2">
  <advance width="740"/>
  <unicode hex="0052"/>
  <outline>
    <contour>
      <point x="113" y="700" type="line"/>
      <point x="113" y="0" type="line"/>
      <point x="256" y="0" type="line"/>
      <point x="256" y="272" type="line"/>
      <point x="350" y="272" type="line"/>
      <point x="509" y="0" type="line"/>
      <point x="676" y="0" type="line"/>
      <point x="508" y="285" type="line"/>
      <point x="593" y="315"/>
      <point x="649" y="396"/>
      <point x="649" y="486" type="curve" smooth="yes"/>
      <point x="649" y="602"/>
      <point x="556" y="700"/>
      <point x="436" y="700" type="curve" smooth="yes"/>
    </contour>
    <contour>
      <point x="256" y="571" type="line"/>
      <point x="423" y="571" type="line" smooth="yes"/>
      <point x="468" y="571"/>
      <point x="507" y="532"/>
      <point x="507" y="487" type="curve" smooth="yes"/>
      <point x="507" y="442"/>
      <point x="468" y="403"/>
      <point x="423" y="403" type="curve" smooth="yes"/>
      <point x="256" y="403" type="line"/>
    </contour>
  </outline>
</glyph>
<glyph name="S" format="2">
  <advance width="730"/>
  <unicode hex="0053"/>
  <outline>
    <contour>
      <point x="111" y="497" type="curve" smooth="yes"/>
      <point x="111" y="400"/>
      <point x="171" y="328"/>
      <point x="269" y="306" type="curve" smooth="yes"/>
      <point x="434" y="269" type="line" smooth="yes"/>
      <point x="468" y="261"/>
      <point x="488" y="229"/>
      <point x="488" y="201" type="curve" smooth="yes"/>
      <point x="488" y="154"/>
      <point x="437" y="120"/>
      <point x="361" y="119" type="curve" smooth="yes"/>
      <point x="296" y="118"/>
      <point x="217" y="157"/>
      <point x="163" y="214" type="curve"/>
      <point x="41" y="120" type="line"/>
      <point x="100" y="37"/>
      <point x="228" y="-18"/>
      <point x="365" y="-18" type="curve" smooth="yes"/>
      <point x="538" y="-18"/>
      <point x="649" y="70"/>
      <point x="649" y="208" type="curve" smooth="yes"/>
      <point x="649" y="328"/>
      <point x="577" y="382"/>
      <point x="476" y="407" type="curve" smooth="yes"/>
      <point x="334" y="443" type="line"/>
      <point x="297" y="447"/>
      <point x="273" y="471"/>
      <point x="273" y="503" type="curve" smooth="yes"/>
      <point x="273" y="552"/>
      <point x="330" y="577"/>
      <point x="383" y="577" type="curve" smooth="yes"/>
      <point x="437" y="577"/>
      <point x="506" y="549"/>
      <point x="556" y="506" type="curve"/>
      <point x="664" y="605" type="line"/>
      <point x="599" y="673"/>
      <point x="488" y="717"/>
      <point x="385" y="717" type="curve" smooth="yes"/>
      <point x="255" y="717"/>
      <point x="111" y="646"/>
    </contour>
  </outline>
</glyph>
<glyph name="T" format="2">
  <advance width="590"/>
  <unicode hex="0054"/>
  <outline>
    <contour>
      <point x="24" y="700" type="line"/>
      <point x="24" y="563" type="line"/>
      <point x="223" y="563" type="line"/>
      <point x="223" y="0" type="line"/>
      <point x="366" y="0" type="line"/>
      <point x="366" y="563" type="line"/>
      <point x="565" y="563" type="line"/>
      <point x="565" y="700" type="line"/>
    </contour>
  </outline>
</glyph>
<glyph name="U" format="2">
  <advance width="785"/>
  <unicode hex="0055"/>
  <outline>
    <contour>
      <point x="245" y="700" type="line"/>
      <point x="102" y="700" type="line"/>
      <point x="102" y="274" type="line" smooth="yes"/>
      <point x="102" y="115"/>
      <point x="233" y="-16"/>
      <point x="393" y="-16" type="curve" smooth="yes"/>
      <point x="553" y="-16"/>
      <point x="682" y="114"/>
      <point x="682" y="274" type="curve" smooth="yes"/>
      <point x="682" y="700" type="line"/>
      <point x="539" y="700" type="line"/>
      <point x="539" y="274" type="line" smooth="yes"/>
      <point x="539" y="193"/>
      <point x="474" y="127"/>
      <point x="393" y="127" type="curve" smooth="yes"/>
      <point x="312" y="127"/>
      <point x="245" y="194"/>
      <point x="245" y="274" type="curve" smooth="yes"/>
    </contour>
  </outline>
</glyph>
<glyph name="V" format="2">
  <advance width="665"/>
  <unicode hex="0056"/>
  <outline>
    <contour>
      <point x="180" y="700" type="line"/>
      <point x="30" y="700" type="line"/>
      <point x="230" y="0" type="line"/>
      <point x="430" y="0" type="line"/>
      <point x="630" y="700" type="line"/>
      <point x="480" y="700" type="line"/>
      <point x="330" y="171" type="line"/>
    </contour>
  </outline>
</glyph>
<glyph name="W" format="2">
  <advance width="965"/>
  <unicode hex="0057"/>
  <outline>
    <contour>
      <point x="396" y="0" type="line"/>
      <point x="496" y="480" type="line"/>
      <point x="596" y="0" type="line"/>
      <point x="776" y="0" type="line"/>
      <point x="939" y="700" type="line"/>
      <point x="791" y="700" type="line"/>
      <point x="679" y="219" type="line"/>
      <point x="579" y="700" type="line"/>
      <point x="412" y="700" type="line"/>
      <point x="312" y="219" type="line"/>
      <point x="200" y="700" type="line"/>
      <point x="52" y="700" type="line"/>
      <point x="216" y="0" type="line"/>
    </contour>
  </outline>
</glyph>
<glyph name="X" format="2">
  <advance width="650"/>
  <unicode hex="0058"/>
  <outline>
    <contour>
      <point x="328" y="232" type="line"/>
      <point x="471" y="0" type="line"/>
      <point x="640" y="0" type="line"/>
      <point x="412" y="369" type="line"/>
      <point x="616" y="700" type="line"/>
      <point x="448" y="700" type="line"/>
      <point x="328" y="505" type="line"/>
      <point x="208" y="700" type="line"/>
      <point x="39" y="700" type="line"/>
      <point x="244" y="369" type="line"/>
      <point x="16" y="0" type="line"/>
      <point x="185" y="0" type="line"/>
    </contour>
  </outline>
</glyph>
<glyph name="Y" format="2">
  <advance width="640"/>
  <unicode hex="0059"/>
  <outline>
    <contour>
      <point x="248" y="276" type="line"/>
      <point x="248" y="0" type="line"/>
      <point x="391" y="0" type="line"/>
      <point x="391" y="276" type="line"/>
      <point x="628" y="699" type="line"/>
      <point x="464" y="699" type="line"/>
      <point x="321" y="443" type="line"/>
      <point x="178" y="699" type="line"/>
      <point x="14" y="699" type="line"/>
    </contour>
  </outline>
</glyph>
<glyph name="Z" format="2">
  <advance width="595"/>
  <unicode hex="005A"/>
  <outline>
    <contour>
      <point x="50" y="556" type="line"/>
      <point x="353" y="556" type="line"/>
      <point x="37" y="143" type="line"/>
      <point x="37" y="0" type="line"/>
      <point x="543" y="0" type="line"/>
      <point x="543" y="143" type="line"/>
      <point x="218" y="143" type="line"/>
      <point x="533" y="556" type="line"/>
      <point x="533" y="699" type="line"/>
      <point x="50" y="699" type="line"/>
    </contour>
  </outline>
</glyph>
<glyph name="a" format="2">
  <advance width="555"/>
  <unicode hex="0061"/>
  <outline>
    <contour>
      <point x="257" y="98" type="curve" smooth="yes"/>
      <point x="207" y="98"/>
      <point x="179" y="123"/>
      <point x="179" y="153" type="curve" smooth="yes"/>
      <point x="179" y="206"/>
      <point x="266" y="214"/>
      <point x="335" y="223" type="curve"/>
      <point x="335" y="151" type="line" smooth="yes"/>
      <point x="335" y="112"/>
      <point x="294" y="98"/>
    </contour>
    <contour>
      <point x="264" y="399" type="curve" smooth="yes"/>
      <point x="310" y="399"/>
      <point x="335" y="376"/>
      <point x="335" y="348" type="curve" smooth="yes"/>
      <point x="335" y="321" type="line"/>
      <point x="287" y="321"/>
      <point x="236" y="315"/>
      <point x="182" y="300" type="curve" smooth="yes"/>
      <point x="102" y="278"/>
      <point x="37" y="246"/>
      <point x="37" y="156" type="curve" smooth="yes"/>
      <point x="37" y="48"/>
      <point x="132" y="-15"/>
      <point x="235" y="-15" type="curve" smooth="yes"/>
      <point x="267" y="-15"/>
      <point x="329" y="-8"/>
      <point x="356" y="37" type="curve"/>
      <point x="377" y="0"/>
      <point x="440" y="-13"/>
      <point x="479" y="-16" type="curve"/>
      <point x="528" y="90" type="line"/>
      <point x="499" y="88"/>
      <point x="471" y="106"/>
      <point x="471" y="137" type="curve" smooth="yes"/>
      <point x="471" y="373" type="line" smooth="yes"/>
      <point x="471" y="481"/>
      <point x="347" y="520"/>
      <point x="265" y="520" type="curve" smooth="yes"/>
      <point x="186" y="520"/>
      <point x="103" y="485"/>
      <point x="42" y="448" type="curve"/>
      <point x="109" y="345" type="line"/>
      <point x="154" y="376"/>
      <point x="218" y="399"/>
    </contour>
  </outline>
</glyph>
<glyph name="b" format="2">
  <advance width="610"/>
  <unicode hex="0062"/>
  <outline>
    <contour>
      <point x="562" y="255" type="curve" smooth="yes"/>
      <point x="562" y="417"/>
      <point x="475" y="520"/>
      <point x="339" y="520" type="curve" smooth="yes"/>
      <point x="283" y="520"/>
      <point x="227" y="502"/>
      <point x="202" y="476" type="curve"/>
      <point x="202" y="700" type="line"/>
      <point x="65" y="700" type="line"/>
      <point x="65" y="0" type="line"/>
      <point x="202" y="0" type="line"/>
      <point x="202" y="34" type="line"/>
      <point x="230" y="5"/>
      <point x="283" y="-13"/>
      <point x="339" y="-13" type="curve" smooth="yes"/>
      <point x="468" y="-13"/>
      <point x="562" y="87"/>
    </contour>
    <contour>
      <point x="315" y="399" type="curve" smooth="yes"/>
      <point x="392" y="399"/>
      <point x="425" y="330"/>
      <point x="425" y="253" type="curve" smooth="yes"/>
      <point x="425" y="173"/>
      <point x="389" y="107"/>
      <point x="316" y="107" type="curve" smooth="yes"/>
      <point x="253" y="107"/>
      <point x="202" y="155"/>
      <point x="202" y="201" type="curve" smooth="yes"/>
      <point x="202" y="309" type="line" smooth="yes"/>
      <point x="202" y="353"/>
      <point x="252" y="399"/>
    </contour>
  </outline>
</glyph>
<glyph name="c" format="2">
  <advance width="535"/>
  <unicode hex="0063"/>
  <outline>
    <contour>
      <point x="499" y="142" type="curve"/>
      <point x="372" y="193" type="line"/>
      <point x="368" y="137"/>
      <point x="328" y="100"/>
      <point x="276" y="100" type="curve" smooth="yes"/>
      <point x="198" y="100"/>
      <point x="169" y="185"/>
      <point x="169" y="250" type="curve" smooth="yes"/>
      <point x="169" y="315"/>
      <point x="199" y="400"/>
      <point x="277" y="400" type="curve" smooth="yes"/>
      <point x="328" y="400"/>
      <point x="367" y="363"/>
      <point x="371" y="307" type="curve"/>
      <point x="499" y="358" type="line"/>
      <point x="478" y="455"/>
      <point x="389" y="520"/>
      <point x="276" y="520" type="curve" smooth="yes"/>
      <point x="119" y="520"/>
      <point x="32" y="395"/>
      <point x="32" y="250" type="curve" smooth="yes"/>
      <point x="32" y="105"/>
      <point x="120" y="-20"/>
      <point x="276" y="-20" type="curve" smooth="yes"/>
      <point x="389" y="-20"/>
      <point x="479" y="45"/>
    </contour>
  </outline>
</glyph>
<glyph name="d" format="2">
  <advance width="595"/>
  <unicode hex="0064"/>
  <outline>
    <contour>
      <point x="28" y="255" type="curve" smooth="yes"/>
      <point x="28" y="87"/>
      <point x="121" y="-13"/>
      <point x="250" y="-13" type="curve" smooth="yes"/>
      <point x="306" y="-13"/>
      <point x="359" y="5"/>
      <point x="387" y="34" type="curve"/>
      <point x="387" y="0" type="line"/>
      <point x="525" y="0" type="line"/>
      <point x="525" y="700" type="line"/>
      <point x="387" y="700" type="line"/>
      <point x="387" y="476" type="line"/>
      <point x="362" y="502"/>
      <point x="307" y="520"/>
      <point x="251" y="520" type="curve" smooth="yes"/>
      <point x="115" y="520"/>
      <point x="28" y="417"/>
    </contour>
    <contour>
      <point x="275" y="399" type="curve" smooth="yes"/>
      <point x="338" y="399"/>
      <point x="387" y="353"/>
      <point x="387" y="309" type="curve" smooth="yes"/>
      <point x="387" y="201" type="line" smooth="yes"/>
      <point x="387" y="155"/>
      <point x="337" y="107"/>
      <point x="274" y="107" type="curve" smooth="yes"/>
      <point x="201" y="107"/>
      <point x="164" y="173"/>
      <point x="164" y="253" type="curve" smooth="yes"/>
      <point x="164" y="330"/>
      <point x="198" y="399"/>
    </contour>
  </outline>
</glyph>
<glyph name="e" format="2">
  <advance width="550"/>
  <unicode hex="0065"/>
  <outline>
    <contour>
      <point x="402" y="156" type="line"/>
      <point x="376" y="126"/>
      <point x="328" y="105"/>
      <point x="285" y="105" type="curve" smooth="yes"/>
      <point x="224" y="105"/>
      <point x="180" y="145"/>
      <point x="170" y="205" type="curve"/>
      <point x="503" y="205" type="line"/>
      <point x="509" y="390"/>
      <point x="414" y="514"/>
      <point x="269" y="514" type="curve" smooth="yes"/>
      <point x="132" y="514"/>
      <point x="36" y="403"/>
      <point x="36" y="253" type="curve" smooth="yes"/>
      <point x="36" y="103"/>
      <point x="133" y="-14"/>
      <point x="274" y="-14" type="curve" smooth="yes"/>
      <point x="350" y="-14"/>
      <point x="427" y="20"/>
      <point x="486" y="70" type="curve"/>
    </contour>
    <contour>
      <point x="170" y="307" type="line"/>
      <point x="177" y="363"/>
      <point x="217" y="400"/>
      <point x="270" y="400" type="curve" smooth="yes"/>
      <point x="323" y="400"/>
      <point x="365" y="363"/>
      <point x="373" y="307" type="curve"/>
    </contour>
  </outline>
</glyph>
<glyph name="f" format="2">
  <advance width="395"/>
  <unicode hex="0066"/>
  <outline>
    <contour>
      <point x="243" y="0" type="line"/>
      <point x="243" y="391" type="line"/>
      <point x="340" y="391" type="line"/>
      <point x="340" y="504" type="line"/>
      <point x="243" y="504" type="line"/>
      <point x="230" y="552"/>
      <point x="256" y="583"/>
      <point x="314" y="583" type="curve" smooth="yes"/>
      <point x="326" y="583"/>
      <point x="341" y="581"/>
      <point x="348" y="579" type="curve"/>
      <point x="373" y="690" type="line"/>
      <point x="329" y="698"/>
      <point x="280" y="704"/>
      <point x="250" y="704" type="curve" smooth="yes"/>
      <point x="160" y="704"/>
      <point x="106" y="652"/>
      <point x="106" y="577" type="curve" smooth="yes"/>
      <point x="106" y="504" type="line"/>
      <point x="26" y="504" type="line"/>
      <point x="26" y="391" type="line"/>
      <point x="106" y="391" type="line"/>
      <point x="106" y="0" type="line"/>
    </contour>
  </outline>
</glyph>
<glyph name="g" format="2">
  <advance width="585"/>
  <unicode hex="0067"/>
  <outline>
    <contour>
      <point x="372" y="27" type="line" smooth="yes"/>
      <point x="372" y="-24"/>
      <point x="326" y="-41"/>
      <point x="273" y="-41" type="curve" smooth="yes"/>
      <point x="218" y="-41"/>
      <point x="154" y="-23"/>
      <point x="102" y="5" type="curve"/>
      <point x="37" y="-105" type="line"/>
      <point x="93" y="-141"/>
      <point x="185" y="-165"/>
      <point x="267" y="-165" type="curve" smooth="yes"/>
      <point x="397" y="-165"/>
      <point x="509" y="-105"/>
      <point x="509" y="19" type="curve" smooth="yes"/>
      <point x="509" y="500" type="line"/>
      <point x="372" y="500" type="line"/>
      <point x="372" y="474" type="line"/>
      <point x="335" y="494"/>
      <point x="284" y="507"/>
      <point x="241" y="507" type="curve" smooth="yes"/>
      <point x="115" y="507"/>
      <point x="31" y="395"/>
      <point x="31" y="263" type="curve" smooth="yes"/>
      <point x="31" y="126"/>
      <point x="121" y="25"/>
      <point x="254" y="25" type="curve" smooth="yes"/>
      <point x="299" y="25"/>
      <point x="346" y="37"/>
      <point x="372" y="54" type="curve"/>
    </contour>
    <contour>
      <point x="372" y="303" type="curve" smooth="yes"/>
      <point x="372" y="236" type="line" smooth="yes"/>
      <point x="372" y="178"/>
      <point x="322" y="147"/>
      <point x="272" y="147" type="curve" smooth="yes"/>
      <point x="204" y="147"/>
      <point x="168" y="203"/>
      <point x="168" y="266" type="curve" smooth="yes"/>
      <point x="168" y="328"/>
      <point x="202" y="388"/>
      <point x="269" y="388" type="curve" smooth="yes"/>
      <point x="322" y="388"/>
      <point x="372" y="351"/>
    </contour>
  </outline>
</glyph>
<glyph name="h" format="2">
  <advance width="595"/>
  <unicode hex="0068"/>
  <outline>
    <contour>
      <point x="383" y="0" type="line"/>
      <point x="520" y="0" type="line"/>
      <point x="383" y="0" type="line"/>
      <point x="520" y="0" type="line"/>
      <point x="520" y="299" type="line" smooth="yes"/>
      <point x="520" y="424"/>
      <point x="440" y="512"/>
      <point x="329" y="512" type="curve" smooth="yes"/>
      <point x="276" y="512"/>
      <point x="226" y="492"/>
      <point x="200" y="462" type="curve"/>
      <point x="200" y="700" type="line"/>
      <point x="63" y="700" type="line"/>
      <point x="63" y="0" type="line"/>
      <point x="200" y="0" type="line"/>
      <point x="200" y="298" type="line" smooth="yes"/>
      <point x="200" y="355"/>
      <point x="253" y="387"/>
      <point x="301" y="387" type="curve" smooth="yes"/>
      <point x="358" y="387"/>
      <point x="383" y="342"/>
      <point x="383" y="298" type="curve" smooth="yes"/>
    </contour>
  </outline>
</glyph>
<glyph name="i" format="2">
  <advance width="275"/>
  <unicode hex="0069"/>
  <outline>
    <component base="dotlessi"/>
    <contour>
      <point x="208" y="628" type="curve" smooth="yes"/>
      <point x="208" y="671"/>
      <point x="174" y="705"/>
      <point x="131" y="705" type="curve" smooth="yes"/>
      <point x="88" y="705"/>
      <point x="52" y="670"/>
      <point x="52" y="627" type="curve" smooth="yes"/>
      <point x="52" y="584"/>
      <point x="87" y="549"/>
      <point x="130" y="549" type="curve" smooth="yes"/>
      <point x="173" y="549"/>
      <point x="208" y="585"/>
    </contour>
    <contour>
      <point x="61" y="500" type="line"/>
      <point x="61" y="0" type="line"/>
      <point x="198" y="0" type="line"/>
      <point x="198" y="500" type="line"/>
    </contour>
  </outline>
</glyph>
<glyph name="j" format="2">
  <advance width="355"/>
  <unicode hex="006A"/>
  <outline>
    <contour>
      <point x="50" y="-41" type="curve"/>
      <point x="16" y="-153" type="line"/>
      <point x="43" y="-161"/>
      <point x="85" y="-168"/>
      <point x="123" y="-168" type="curve" smooth="yes"/>
      <point x="192" y="-168"/>
      <point x="276" y="-149"/>
      <point x="276" y="-60" type="curve" smooth="yes"/>
      <point x="276" y="500" type="line"/>
      <point x="139" y="500" type="line"/>
      <point x="139" y="-11" type="line"/>
      <point x="132" y="-32"/>
      <point x="114" y="-46"/>
      <point x="89" y="-46" type="curve" smooth="yes"/>
      <point x="79" y="-46"/>
      <point x="62" y="-44"/>
    </contour>
    <contour>
      <point x="285" y="627" type="curve" smooth="yes"/>
      <point x="285" y="670"/>
      <point x="251" y="705"/>
      <point x="208" y="705" type="curve" smooth="yes"/>
      <point x="165" y="705"/>
      <point x="129" y="669"/>
      <point x="129" y="626" type="curve" smooth="yes"/>
      <point x="129" y="583"/>
      <point x="165" y="548"/>
      <point x="208" y="548" type="curve" smooth="yes"/>
      <point x="251" y="548"/>
      <point x="285" y="584"/>
    </contour>
  </outline>
</glyph>
<glyph name="k" format="2">
  <advance width="570"/>
  <unicode hex="006B"/>
  <outline>
    <contour>
      <point x="376" y="0" type="line"/>
      <point x="537" y="0" type="line"/>
      <point x="351" y="294" type="line"/>
      <point x="554" y="500" type="line"/>
      <point x="372" y="500" type="line"/>
      <point x="198" y="325" type="line"/>
      <point x="198" y="700" type="line"/>
      <point x="61" y="700" type="line"/>
      <point x="61" y="0" type="line"/>
      <point x="198" y="0" type="line"/>
      <point x="198" y="139" type="line"/>
      <point x="252" y="195" type="line"/>
    </contour>
  </outline>
</glyph>
<glyph name="l" format="2">
  <advance width="315"/>
  <unicode hex="006C"/>
  <outline>
    <contour>
      <point x="60" y="93" type="line" smooth="yes"/>
      <point x="60" y="35"/>
      <point x="105" y="-15"/>
      <point x="174" y="-15" type="curve" smooth="yes"/>
      <point x="200" y="-15"/>
      <point x="249" y="-8"/>
      <point x="295" y="3" type="curve"/>
      <point x="280" y="123" type="line"/>
      <point x="260" y="120"/>
      <point x="242" y="118"/>
      <point x="232" y="118" type="curve" smooth="yes"/>
      <point x="207" y="118"/>
      <point x="197" y="130"/>
      <point x="197" y="148" type="curve" smooth="yes"/>
      <point x="197" y="700" type="line"/>
      <point x="60" y="700" type="line"/>
    </contour>
  </outline>
</glyph>
<glyph name="m" format="2">
  <advance width="865"/>
  <unicode hex="006D"/>
  <outline>
    <contour>
      <point x="786" y="0" type="line"/>
      <point x="649" y="0" type="line"/>
      <point x="786" y="0" type="line"/>
      <point x="786" y="298" type="line" smooth="yes"/>
      <point x="786" y="424"/>
      <point x="701" y="512"/>
      <point x="592" y="512" type="curve" smooth="yes"/>
      <point x="531" y="512"/>
      <point x="474" y="485"/>
      <point x="450" y="443" type="curve"/>
      <point x="431" y="485"/>
      <point x="382" y="512"/>
      <point x="320" y="512" type="curve" smooth="yes"/>
      <point x="266" y="512"/>
      <point x="217" y="492"/>
      <point x="200" y="461" type="curve"/>
      <point x="200" y="500" type="line"/>
      <point x="63" y="500" type="line"/>
      <point x="63" y="0" type="line"/>
      <point x="200" y="0" type="line"/>
      <point x="200" y="300" type="line" smooth="yes"/>
      <point x="200" y="343"/>
      <point x="246" y="384"/>
      <point x="289" y="384" type="curve" smooth="yes"/>
      <point x="334" y="384"/>
      <point x="356" y="340"/>
      <point x="356" y="300" type="curve" smooth="yes"/>
      <point x="356" y="0" type="line"/>
      <point x="493" y="0" type="line"/>
      <point x="493" y="300" type="line" smooth="yes"/>
      <point x="493" y="343"/>
      <point x="538" y="384"/>
      <point x="582" y="384" type="curve" smooth="yes"/>
      <point x="627" y="384"/>
      <point x="649" y="341"/>
      <point x="649" y="300" type="curve" smooth="yes"/>
      <point x="649" y="0" type="line"/>
    </contour>
  </outline>
</glyph>
<glyph name="n" format="2">
  <advance width="595"/>
  <unicode hex="006E"/>
  <outline>
    <contour>
      <point x="302" y="386" type="curve" smooth="yes"/>
      <point x="360" y="386"/>
      <point x="383" y="342"/>
      <point x="383" y="298" type="curve" smooth="yes"/>
      <point x="383" y="0" type="line"/>
      <point x="520" y="0" type="line"/>
      <point x="383" y="0" type="line"/>
      <point x="520" y="0" type="line"/>
      <point x="520" y="299" type="line" smooth="yes"/>
      <point x="520" y="420"/>
      <point x="437" y="511"/>
      <point x="331" y="512" type="curve" smooth="yes"/>
      <point x="262" y="513"/>
      <point x="212" y="476"/>
      <point x="200" y="464" type="curve"/>
      <point x="200" y="500" type="line"/>
      <point x="63" y="500" type="line"/>
      <point x="63" y="0" type="line"/>
      <point x="200" y="0" type="line"/>
      <point x="200" y="301" type="line" smooth="yes"/>
      <point x="200" y="356"/>
      <point x="254" y="386"/>
    </contour>
  </outline>
</glyph>
<glyph name="o" format="2">
  <advance width="575"/>
  <unicode hex="006F"/>
  <outline>
    <contour>
      <point x="274" y="520" type="curve" smooth="yes"/>
      <point x="119" y="520"/>
      <point x="32" y="394"/>
      <point x="32" y="249" type="curve" smooth="yes"/>
      <point x="32" y="104"/>
      <point x="119" y="-20"/>
      <point x="274" y="-20" type="curve" smooth="yes"/>
      <point x="429" y="-20"/>
      <point x="516" y="104"/>
      <point x="516" y="249" type="curve" smooth="yes"/>
      <point x="516" y="395"/>
      <point x="429" y="520"/>
    </contour>
    <contour>
      <point x="274" y="100" type="curve" smooth="yes"/>
      <point x="199" y="100"/>
      <point x="169" y="182"/>
      <point x="169" y="247" type="curve" smooth="yes"/>
      <point x="169" y="312"/>
      <point x="199" y="400"/>
      <point x="274" y="400" type="curve" smooth="yes"/>
      <point x="349" y="400"/>
      <point x="379" y="312"/>
      <point x="379" y="247" type="curve" smooth="yes"/>
      <point x="379" y="181"/>
      <point x="349" y="100"/>
    </contour>
  </outline>
</glyph>
<glyph name="p" format="2">
  <advance width="600"/>
  <unicode hex="0070"/>
  <outline>
    <contour>
      <point x="552" y="252" type="curve" smooth="yes"/>
      <point x="552" y="420"/>
      <point x="459" y="520"/>
      <point x="327" y="520" type="curve" smooth="yes"/>
      <point x="273" y="520"/>
      <point x="219" y="502"/>
      <point x="192" y="473" type="curve"/>
      <point x="192" y="500" type="line"/>
      <point x="55" y="500" type="line"/>
      <point x="55" y="-150" type="line"/>
      <point x="192" y="-150" type="line"/>
      <point x="192" y="31" type="line"/>
      <point x="219" y="4"/>
      <point x="273" y="-14"/>
      <point x="329" y="-14" type="curve" smooth="yes"/>
      <point x="465" y="-14"/>
      <point x="552" y="90"/>
    </contour>
    <contour>
      <point x="305" y="107" type="curve" smooth="yes"/>
      <point x="241" y="107"/>
      <point x="192" y="154"/>
      <point x="192" y="198" type="curve" smooth="yes"/>
      <point x="192" y="306" type="line" smooth="yes"/>
      <point x="192" y="352"/>
      <point x="243" y="400"/>
      <point x="306" y="400" type="curve" smooth="yes"/>
      <point x="379" y="400"/>
      <point x="415" y="334"/>
      <point x="415" y="254" type="curve" smooth="yes"/>
      <point x="415" y="177"/>
      <point x="382" y="107"/>
    </contour>
  </outline>
</glyph>
<glyph name="q" format="2">
  <advance width="600"/>
  <unicode hex="0071"/>
  <outline>
    <contour>
      <point x="45" y="252" type="curve" smooth="yes"/>
      <point x="45" y="90"/>
      <point x="133" y="-14"/>
      <point x="266" y="-14" type="curve" smooth="yes"/>
      <point x="325" y="-14"/>
      <point x="379" y="4"/>
      <point x="404" y="31" type="curve"/>
      <point x="404" y="-150" type="line"/>
      <point x="542" y="-150" type="line"/>
      <point x="542" y="500" type="line"/>
      <point x="404" y="500" type="line"/>
      <point x="404" y="473" type="line"/>
      <point x="376" y="502"/>
      <point x="323" y="520"/>
      <point x="267" y="520" type="curve" smooth="yes"/>
      <point x="138" y="520"/>
      <point x="45" y="420"/>
    </contour>
    <contour>
      <point x="292" y="107" type="curve" smooth="yes"/>
      <point x="215" y="107"/>
      <point x="181" y="177"/>
      <point x="181" y="254" type="curve" smooth="yes"/>
      <point x="181" y="334"/>
      <point x="218" y="400"/>
      <point x="291" y="400" type="curve" smooth="yes"/>
      <point x="354" y="400"/>
      <point x="404" y="352"/>
      <point x="404" y="306" type="curve" smooth="yes"/>
      <point x="404" y="198" type="line" smooth="yes"/>
      <point x="404" y="154"/>
      <point x="356" y="107"/>
    </contour>
  </outline>
</glyph>
<glyph name="r" format="2">
  <advance width="425"/>
  <unicode hex="0072"/>
  <outline>
    <contour>
      <point x="361" y="376" type="curve"/>
      <point x="361" y="508" type="line"/>
      <point x="328" y="508" type="line" smooth="yes"/>
      <point x="280" y="508"/>
      <point x="229" y="485"/>
      <point x="201" y="450" type="curve"/>
      <point x="201" y="499" type="line"/>
      <point x="64" y="499" type="line"/>
      <point x="64" y="0" type="line"/>
      <point x="201" y="0" type="line"/>
      <point x="201" y="265" type="line" smooth="yes"/>
      <point x="201" y="328"/>
      <point x="255" y="381"/>
      <point x="330" y="378" type="curve" smooth="yes"/>
      <point x="333" y="378"/>
      <point x="351" y="377"/>
    </contour>
  </outline>
</glyph>
<glyph name="s" format="2">
  <advance width="500"/>
  <unicode hex="0073"/>
  <outline>
    <contour>
      <point x="371" y="350" type="curve"/>
      <point x="455" y="440" type="line"/>
      <point x="406" y="486"/>
      <point x="323" y="515"/>
      <point x="243" y="515" type="curve" smooth="yes"/>
      <point x="122" y="515"/>
      <point x="47" y="446"/>
      <point x="47" y="352" type="curve" smooth="yes"/>
      <point x="47" y="274"/>
      <point x="99" y="218"/>
      <point x="189" y="201" type="curve" smooth="yes"/>
      <point x="252" y="189" type="line" smooth="yes"/>
      <point x="286" y="183"/>
      <point x="320" y="175"/>
      <point x="320" y="144" type="curve" smooth="yes"/>
      <point x="320" y="110"/>
      <point x="279" y="99"/>
      <point x="250" y="99" type="curve" smooth="yes"/>
      <point x="204" y="99"/>
      <point x="148" y="127"/>
      <point x="112" y="169" type="curve"/>
      <point x="12" y="78" type="line"/>
      <point x="89" y="2"/>
      <point x="176" y="-15"/>
      <point x="258" y="-15" type="curve" smooth="yes"/>
      <point x="368" y="-15"/>
      <point x="461" y="51"/>
      <point x="461" y="150" type="curve" smooth="yes"/>
      <point x="461" y="232"/>
      <point x="404" y="295"/>
      <point x="311" y="309" type="curve" smooth="yes"/>
      <point x="239" y="320" type="line" smooth="yes"/>
      <point x="196" y="327"/>
      <point x="185" y="339"/>
      <point x="185" y="356" type="curve" smooth="yes"/>
      <point x="185" y="388"/>
      <point x="221" y="405"/>
      <point x="253" y="405" type="curve" smooth="yes"/>
      <point x="301" y="405"/>
      <point x="348" y="373"/>
    </contour>
  </outline>
</glyph>
<glyph name="t" format="2">
  <advance width="420"/>
  <unicode hex="0074"/>
  <outline>
    <contour>
      <point x="110" y="660" type="line"/>
      <point x="110" y="504" type="line"/>
      <point x="30" y="504" type="line"/>
      <point x="30" y="390" type="line"/>
      <point x="110" y="390" type="line"/>
      <point x="110" y="93" type="line" smooth="yes"/>
      <point x="110" y="17"/>
      <point x="171" y="-16"/>
      <point x="251" y="-16" type="curve" smooth="yes"/>
      <point x="292" y="-16"/>
      <point x="347" y="-7"/>
      <point x="393" y="6" type="curve"/>
      <point x="363" y="120" type="line"/>
      <point x="342" y="112"/>
      <point x="312" y="107"/>
      <point x="295" y="107" type="curve" smooth="yes"/>
      <point x="264" y="107"/>
      <point x="247" y="124"/>
      <point x="247" y="146" type="curve" smooth="yes"/>
      <point x="247" y="390" type="line"/>
      <point x="373" y="390" type="line"/>
      <point x="373" y="504" type="line"/>
      <point x="247" y="504" type="line"/>
      <point x="247" y="699" type="line"/>
    </contour>
  </outline>
</glyph>
<glyph name="u" format="2">
  <advance width="600"/>
  <unicode hex="0075"/>
  <outline>
    <contour>
      <point x="280" y="114" type="curve" smooth="yes"/>
      <point x="222" y="114"/>
      <point x="200" y="158"/>
      <point x="200" y="202" type="curve" smooth="yes"/>
      <point x="200" y="500" type="line"/>
      <point x="63" y="500" type="line"/>
      <point x="200" y="500" type="line"/>
      <point x="63" y="500" type="line"/>
      <point x="63" y="201" type="line" smooth="yes"/>
      <point x="63" y="80"/>
      <point x="146" y="-11"/>
      <point x="252" y="-12" type="curve" smooth="yes"/>
      <point x="321" y="-13"/>
      <point x="371" y="24"/>
      <point x="383" y="36" type="curve"/>
      <point x="383" y="0" type="line"/>
      <point x="520" y="0" type="line"/>
      <point x="520" y="500" type="line"/>
      <point x="383" y="500" type="line"/>
      <point x="383" y="199" type="line" smooth="yes"/>
      <point x="383" y="144"/>
      <point x="328" y="114"/>
    </contour>
  </outline>
</glyph>
<glyph name="v" format="2">
  <advance width="535"/>
  <unicode hex="0076"/>
  <outline>
    <contour>
      <point x="17" y="500" type="line"/>
      <point x="191" y="0" type="line"/>
      <point x="344" y="0" type="line"/>
      <point x="517" y="500" type="line"/>
      <point x="376" y="500" type="line"/>
      <point x="268" y="186" type="line"/>
      <point x="158" y="500" type="line"/>
    </contour>
  </outline>
</glyph>
<glyph name="w" format="2">
  <advance width="800"/>
  <unicode hex="0077"/>
  <outline>
    <contour>
      <point x="461" y="0" type="line"/>
      <point x="621" y="0" type="line"/>
      <point x="762" y="500" type="line"/>
      <point x="626" y="500" type="line"/>
      <point x="538" y="183" type="line"/>
      <point x="463" y="500" type="line"/>
      <point x="315" y="500" type="line"/>
      <point x="240" y="183" type="line"/>
      <point x="151" y="500" type="line"/>
      <point x="16" y="500" type="line"/>
      <point x="157" y="0" type="line"/>
      <point x="317" y="0" type="line"/>
      <point x="389" y="309" type="line"/>
    </contour>
  </outline>
</glyph>
<glyph name="x" format="2">
  <advance width="550"/>
  <unicode hex="0078"/>
  <outline>
    <contour>
      <point x="367" y="0" type="line"/>
      <point x="521" y="0" type="line"/>
      <point x="344" y="265" type="line"/>
      <point x="500" y="500" type="line"/>
      <point x="347" y="500" type="line"/>
      <point x="267" y="380" type="line"/>
      <point x="187" y="500" type="line"/>
      <point x="34" y="500" type="line"/>
      <point x="190" y="265" type="line"/>
      <point x="13" y="0" type="line"/>
      <point x="167" y="0" type="line"/>
      <point x="267" y="152" type="line"/>
    </contour>
  </outline>
</glyph>
<glyph name="y" format="2">
  <advance width="510"/>
  <unicode hex="0079"/>
  <outline>
    <contour>
      <point x="256" y="198" type="line"/>
      <point x="148" y="500" type="line"/>
      <point x="10" y="500" type="line"/>
      <point x="181" y="23" type="line"/>
      <point x="183" y="10" type="line"/>
      <point x="180" y="-19"/>
      <point x="162" y="-39"/>
      <point x="133" y="-40" type="curve" smooth="yes"/>
      <point x="124" y="-40"/>
      <point x="113" y="-38"/>
      <point x="106" y="-37" type="curve" smooth="yes"/>
      <point x="63" y="-30" type="line"/>
      <point x="46" y="-149" type="line"/>
      <point x="92" y="-158"/>
      <point x="146" y="-164"/>
      <point x="179" y="-163" type="curve" smooth="yes"/>
      <point x="248" y="-162"/>
      <point x="278" y="-130"/>
      <point x="294" y="-84" type="curve" smooth="yes"/>
      <point x="502" y="500" type="line"/>
      <point x="364" y="500" type="line"/>
    </contour>
  </outline>
</glyph>
<glyph name="z" format="2">
  <advance width="465"/>
  <unicode hex="007A"/>
  <outline>
    <contour>
      <point x="27" y="0" type="line"/>
      <point x="423" y="0" type="line"/>
      <point x="423" y="117" type="line"/>
      <point x="196" y="117" type="line"/>
      <point x="417" y="383" type="line"/>
      <point x="417" y="500" type="line"/>
      <point x="40" y="500" type="line"/>
      <point x="40" y="383" type="line"/>
      <point x="247" y="383" type="line"/>
      <point x="27" y="117" type="line"/>
    </contour>
  </outline>
</glyph>
<glyph name="sterling" format="2">
  <advance width="700"/>
  <unicode hex="00A3"/>
  <outline>
    <contour>
      <point x="276" y="264" type="curve"/>
      <point x="430" y="264" type="line"/>
      <point x="430" y="363" type="line"/>
      <point x="254" y="363" type="line"/>
      <point x="230" y="374"/>
      <point x="214" y="412"/>
      <point x="214" y="453" type="curve" smooth="yes"/>
      <point x="214" y="534"/>
      <point x="275" y="570"/>
      <point x="324" y="570" type="curve" smooth="yes"/>
      <point x="381" y="570"/>
      <point x="421" y="532"/>
      <point x="426" y="475" type="curve"/>
      <point x="562" y="490" type="line"/>
      <point x="553" y="620"/>
      <point x="454" y="706"/>
      <point x="320" y="706" type="curve" smooth="yes"/>
      <point x="169" y="706"/>
      <point x="77" y="597"/>
      <point x="77" y="467" type="curve" smooth="yes"/>
      <point x="77" y="422"/>
      <point x="85" y="380"/>
      <point x="98" y="363" type="curve"/>
      <point x="53" y="363" type="line"/>
      <point x="53" y="264" type="line"/>
      <point x="139" y="264" type="line"/>
      <point x="139" y="243" type="line" smooth="yes"/>
      <point x="139" y="190"/>
      <point x="98" y="145"/>
      <point x="37" y="132" type="curve"/>
      <point x="74" y="0" type="line"/>
      <point x="111" y="9"/>
      <point x="157" y="15"/>
      <point x="193" y="15" type="curve" smooth="yes"/>
      <point x="259" y="15"/>
      <point x="313" y="-5"/>
      <point x="369" y="-13" type="curve" smooth="yes"/>
      <point x="400" y="-17"/>
      <point x="430" y="-19"/>
      <point x="450" y="-19" type="curve" smooth="yes"/>
      <point x="505" y="-19"/>
      <point x="564" y="-11"/>
      <point x="597" y="0" type="curve"/>
      <point x="560" y="131" type="line"/>
      <point x="524" y="123"/>
      <point x="480" y="118"/>
      <point x="446" y="118" type="curve" smooth="yes"/>
      <point x="376" y="118"/>
      <point x="299" y="130"/>
      <point x="253" y="149" type="curve"/>
      <point x="269" y="183"/>
      <point x="278" y="229"/>
    </contour>
  </outline>
</glyph>
<glyph name="onehalf" format="2">
  <advance width="680"/>
  <unicode hex="00BD"/>
  <outline>
    <contour>
      <point x="254" y="329" type="curve" smooth="yes"/>
      <point x="254" y="302" type="line"/>
      <point x="365" y="302" type="line"/>
      <point x="352" y="365"/>
      <point x="383" y="408"/>
      <point x="438" y="408" type="curve" smooth="yes"/>
      <point x="486" y="408"/>
      <point x="516" y="377"/>
      <point x="516" y="332" type="curve" smooth="yes"/>
      <point x="516" y="257"/>
      <point x="431" y="207"/>
      <point x="364" y="161" type="curve" smooth="yes"/>
      <point x="343" y="147"/>
      <point x="302" y="120"/>
      <point x="263" y="96" type="curve"/>
      <point x="263" y="0" type="line"/>
      <point x="623" y="0" type="line"/>
      <point x="623" y="96" type="line"/>
      <point x="452" y="96" type="line"/>
      <point x="557" y="131"/>
      <point x="627" y="226"/>
      <point x="627" y="325" type="curve" smooth="yes"/>
      <point x="627" y="413"/>
      <point x="571" y="505"/>
      <point x="447" y="505" type="curve" smooth="yes"/>
      <point x="352" y="505"/>
      <point x="254" y="452"/>
    </contour>
    <contour>
      <point x="26" y="721" type="curve"/>
      <point x="26" y="648" type="line"/>
      <point x="95" y="648" type="line"/>
      <point x="95" y="302" type="line"/>
      <point x="207" y="302" type="line"/>
      <point x="207" y="795" type="line"/>
      <point x="106" y="795" type="line"/>
      <point x="103" y="740"/>
      <point x="71" y="710"/>
    </contour>
  </outline>
</glyph>
<glyph name="threequarters" format="2">
  <advance width="810"/>
  <unicode hex="00BE"/>
  <outline>
    <contour>
      <point x="310" y="448" type="curve" smooth="yes"/>
      <point x="310" y="406"/>
      <point x="270" y="390"/>
      <point x="230" y="390" type="curve" smooth="yes"/>
      <point x="190" y="390"/>
      <point x="152" y="416"/>
      <point x="134" y="456" type="curve"/>
      <point x="25" y="436" type="line"/>
      <point x="58" y="349"/>
      <point x="143" y="290"/>
      <point x="250" y="290" type="curve" smooth="yes"/>
      <point x="343" y="290"/>
      <point x="423" y="334"/>
      <point x="423" y="440" type="curve" smooth="yes"/>
      <point x="423" y="498"/>
      <point x="395" y="545"/>
      <point x="352" y="557" type="curve"/>
      <point x="388" y="577"/>
      <point x="412" y="612"/>
      <point x="412" y="656" type="curve" smooth="yes"/>
      <point x="412" y="749"/>
      <point x="306" y="801"/>
      <point x="218" y="801" type="curve" smooth="yes"/>
      <point x="135" y="801"/>
      <point x="60" y="743"/>
      <point x="30" y="656" type="curve"/>
      <point x="138" y="642" type="line"/>
      <point x="155" y="680"/>
      <point x="189" y="705"/>
      <point x="228" y="705" type="curve" smooth="yes"/>
      <point x="265" y="705"/>
      <point x="300" y="682"/>
      <point x="300" y="647" type="curve" smooth="yes"/>
      <point x="300" y="595"/>
      <point x="256" y="575"/>
      <point x="190" y="596" type="curve"/>
      <point x="190" y="508" type="line"/>
      <point x="262" y="532"/>
      <point x="310" y="508"/>
    </contour>
    <contour>
      <point x="702" y="491" type="line"/>
      <point x="562" y="491" type="line"/>
      <point x="313" y="186" type="line"/>
      <point x="313" y="83" type="line"/>
      <point x="590" y="83" type="line"/>
      <point x="590" y="0" type="line"/>
      <point x="702" y="0" type="line"/>
      <point x="702" y="83" type="line"/>
      <point x="775" y="83" type="line"/>
      <point x="775" y="186" type="line"/>
      <point x="702" y="186" type="line"/>
    </contour>
    <contour>
      <point x="438" y="186" type="line"/>
      <point x="590" y="373" type="line"/>
      <point x="590" y="186" type="line"/>
    </contour>
  </outline>
</glyph>
<glyph name="onethird" format="2">
  <advance width="680"/>
  <unicode hex="2153"/>
  <outline>
    <contour>
      <point x="540" y="157" type="curve" smooth="yes"/>
      <point x="540" y="109"/>
      <point x="500" y="93"/>
      <point x="465" y="93" type="curve" smooth="yes"/>
      <point x="420" y="93"/>
      <point x="380" y="119"/>
      <point x="364" y="159" type="curve"/>
      <point x="254" y="138" type="line"/>
      <point x="283" y="51"/>
      <point x="373" y="-7"/>
      <point x="480" y="-7" type="curve" smooth="yes"/>
      <point x="573" y="-7"/>
      <point x="653" y="37"/>
      <point x="653" y="140" type="curve" smooth="yes"/>
      <point x="653" y="201"/>
      <point x="625" y="249"/>
      <point x="582" y="260" type="curve"/>
      <point x="618" y="275"/>
      <point x="642" y="315"/>
      <point x="642" y="359" type="curve" smooth="yes"/>
      <point x="642" y="452"/>
      <point x="536" y="504"/>
      <point x="453" y="504" type="curve" smooth="yes"/>
      <point x="365" y="504"/>
      <point x="288" y="446"/>
      <point x="260" y="359" type="curve"/>
      <point x="368" y="345" type="line"/>
      <point x="383" y="383"/>
      <point x="419" y="408"/>
      <point x="458" y="408" type="curve" smooth="yes"/>
      <point x="495" y="408"/>
      <point x="530" y="385"/>
      <point x="530" y="344" type="curve" smooth="yes"/>
      <point x="530" y="298"/>
      <point x="485" y="280"/>
      <point x="419" y="299" type="curve"/>
      <point x="419" y="211" type="line"/>
      <point x="491" y="232"/>
      <point x="540" y="210"/>
    </contour>
    <contour>
      <point x="26" y="721" type="curve"/>
      <point x="26" y="648" type="line"/>
      <point x="95" y="648" type="line"/>
      <point x="95" y="302" type="line"/>
      <point x="207" y="302" type="line"/>
      <point x="207" y="795" type="line"/>
      <point x="106" y="795" type="line"/>
      <point x="103" y="740"/>
      <point x="71" y="710"/>
    </contour>
  </outline>
</glyph>
<glyph name="twothirds" format="2">
  <advance width="860"/>
  <unicode hex="2154"/>
  <outline>
    <contour>
      <point x="711" y="156" type="curve" smooth="yes"/>
      <point x="711" y="108"/>
      <point x="671" y="92"/>
      <point x="636" y="92" type="curve" smooth="yes"/>
      <point x="591" y="92"/>
      <point x="551" y="118"/>
      <point x="535" y="158" type="curve"/>
      <point x="425" y="137" type="line"/>
      <point x="454" y="50"/>
      <point x="544" y="-8"/>
      <point x="651" y="-8" type="curve" smooth="yes"/>
      <point x="744" y="-8"/>
      <point x="824" y="36"/>
      <point x="824" y="139" type="curve" smooth="yes"/>
      <point x="824" y="200"/>
      <point x="796" y="248"/>
      <point x="753" y="259" type="curve"/>
      <point x="789" y="274"/>
      <point x="813" y="314"/>
      <point x="813" y="358" type="curve" smooth="yes"/>
      <point x="813" y="451"/>
      <point x="707" y="503"/>
      <point x="624" y="503" type="curve" smooth="yes"/>
      <point x="536" y="503"/>
      <point x="459" y="445"/>
      <point x="431" y="358" type="curve"/>
      <point x="539" y="344" type="line"/>
      <point x="554" y="382"/>
      <point x="590" y="407"/>
      <point x="629" y="407" type="curve" smooth="yes"/>
      <point x="666" y="407"/>
      <point x="701" y="384"/>
      <point x="701" y="343" type="curve" smooth="yes"/>
      <point x="701" y="297"/>
      <point x="656" y="279"/>
      <point x="590" y="298" type="curve"/>
      <point x="590" y="210" type="line"/>
      <point x="662" y="231"/>
      <point x="711" y="209"/>
    </contour>
    <contour>
      <point x="21" y="625" type="curve" smooth="yes"/>
      <point x="21" y="599" type="line"/>
      <point x="133" y="599" type="line"/>
      <point x="120" y="662"/>
      <point x="151" y="705"/>
      <point x="206" y="705" type="curve" smooth="yes"/>
      <point x="254" y="705"/>
      <point x="284" y="673"/>
      <point x="284" y="628" type="curve" smooth="yes"/>
      <point x="284" y="553"/>
      <point x="199" y="503"/>
      <point x="132" y="457" type="curve" smooth="yes"/>
      <point x="111" y="443"/>
      <point x="70" y="417"/>
      <point x="31" y="393" type="curve"/>
      <point x="31" y="296" type="line"/>
      <point x="391" y="296" type="line"/>
      <point x="391" y="393" type="line"/>
      <point x="220" y="393" type="line"/>
      <point x="325" y="428"/>
      <point x="394" y="522"/>
      <point x="394" y="621" type="curve" smooth="yes"/>
      <point x="394" y="709"/>
      <point x="338" y="802"/>
      <point x="214" y="802" type="curve" smooth="yes"/>
      <point x="119" y="802"/>
      <point x="21" y="748"/>
    </contour>
  </outline>
</glyph>
<glyph name="uni2191" format="2">
  <advance width="1000"/>
  <unicode hex="2191"/>
  <outline>
    <contour>
      <point x="500" y="1250" type="line"/>
      <point x="0" y="750" type="line"/>
      <point x="0" y="250" type="line"/>
      <point x="333" y="584" type="line"/>
      <point x="333" y="-500" type="line"/>
      <point x="667" y="-500" type="line"/>
      <point x="667" y="584" type="line"/>
      <point x="1000" y="250" type="line"/>
      <point x="1000" y="750" type="line"/>
    </contour>
  </outline>
</glyph>
<glyph name="uni2192" format="2">
  <advance width="2000"/>
  <unicode hex="2192"/>
  <outline>
    <contour>
      <point x="0" y="83" type="line"/>
      <point x="1333" y="83" type="line"/>
      <point x="1000" y="-250" type="line"/>
      <point x="1500" y="-250" type="line"/>
      <point x="2000" y="250" type="line"/>
      <point x="1500" y="749" type="line"/>
      <point x="1000" y="749" type="line"/>
      <point x="1333" y="417" type="line"/>
      <point x="0" y="417" type="line"/>
    </contour>
  </outline>
</glyph>
